<?xml version="1.0" ?>
<svg xmlns="http://www.w3.org/2000/svg" width="1000.0" height="1000.0" viewBox="50 50 900 900">
	<circle cx="500.0" cy="500.0" r="450.0" fill="#45474c"/>
	<path d="M 895.4677006978844,714.7214421168238 A 450.0,450.0 0 0,1 883.6880739593415,735.124354122177 L 810.0759146376643,692.624354122177 L 821.8555413762072,672.2214421168238 Z" fill="#588ea5"/>
	<path d="M 735.124354122177,883.6880739593414 A 450.0,450.0 0 0,1 714.7214421168238,895.4677006978844 L 672.2214421168238,821.8555413762072 L 692.624354122177,810.0759146376641 Z" fill="#588ea5"/>
	<path d="M 285.2785578831762,895.4677006978844 A 450.0,450.0 0 0,1 264.87564587782305,883.6880739593415 L 307.37564587782305,810.0759146376643 L 327.7785578831762,821.8555413762072 Z" fill="#588ea5"/>
	<path d="M 116.31192604065853,735.124354122177 A 450.0,450.0 0 0,1 104.53229930211563,714.7214421168239 L 178.14445862379293,672.2214421168239 L 189.92408536233583,692.624354122177 Z" fill="#588ea5"/>
	<path d="M 104.53229930211558,285.2785578831762 A 450.0,450.0 0 0,1 116.31192604065848,264.87564587782305 L 189.92408536233575,307.37564587782305 L 178.14445862379284,327.7785578831762 Z" fill="#588ea5"/>
	<path d="M 264.8756458778231,116.31192604065842 A 450.0,450.0 0 0,1 285.27855788317606,104.53229930211563 L 327.7785578831761,178.1444586237929 L 307.37564587782316,189.9240853623357 Z" fill="#588ea5"/>
	<path d="M 714.7214421168237,104.53229930211558 A 450.0,450.0 0 0,1 735.124354122177,116.31192604065859 L 692.624354122177,189.92408536233586 L 672.2214421168237,178.14445862379284 Z" fill="#588ea5"/>
	<path d="M 883.6880739593415,264.8756458778231 A 450.0,450.0 0 0,1 895.4677006978843,285.27855788317606 L 821.855541376207,327.7785578831761 L 810.0759146376643,307.37564587782316 Z" fill="#588ea5"/>
	<circle stroke-width="75.0" cx="500.0" cy="500.0" r="337.5" fill="none" stroke="#e9f7fa"/>
	<circle stroke-width="75.0" cx="500.0" cy="500.0" r="187.5" fill="none" stroke="#ffe369"/>
	<line stroke-width="30.0" x1="245.0" y1="500.0" x2="755.0" y2="500.0" stroke="#45474c"/>
	<line stroke-width="30.0" x1="319.6877707974304" y1="319.6877707974304" x2="680.3122292025696" y2="680.3122292025696" stroke="#45474c"/>
	<line stroke-width="30.0" x1="680.3122292025696" y1="319.6877707974304" x2="319.6877707974304" y2="680.3122292025696" stroke="#45474c"/>
	<circle cx="500.0" cy="500.0" r="75.0" fill="#64d1ef"/>
	<circle stroke-width="10.0" cx="500.0" cy="500.0" r="40.0" fill="none" stroke="#588ea5"/>
	<path d="M 500.0 415.0 C 480.0 365.0, 520.0 365.0, 500.0 415.0" fill="#6e6e6e" transform="rotate(0 500.0 500.0)"/>
	<path d="M 500.0 415.0 C 480.0 365.0, 520.0 365.0, 500.0 415.0" fill="#6e6e6e" transform="rotate(45 500.0 500.0)"/>
	<path d="M 500.0 415.0 C 480.0 365.0, 520.0 365.0, 500.0 415.0" fill="#6e6e6e" transform="rotate(90 500.0 500.0)"/>
	<path d="M 500.0 415.0 C 480.0 365.0, 520.0 365.0, 500.0 415.0" fill="#6e6e6e" transform="rotate(135 500.0 500.0)"/>
	<path d="M 500.0 415.0 C 480.0 365.0, 520.0 365.0, 500.0 415.0" fill="#6e6e6e" transform="rotate(180 500.0 500.0)"/>
	<path d="M 500.0 415.0 C 480.0 365.0, 520.0 365.0, 500.0 415.0" fill="#6e6e6e" transform="rotate(225 500.0 500.0)"/>
	<path d="M 500.0 415.0 C 480.0 365.0, 520.0 365.0, 500.0 415.0" fill="#6e6e6e" transform="rotate(270 500.0 500.0)"/>
	<path d="M 500.0 415.0 C 480.0 365.0, 520.0 365.0, 500.0 415.0" fill="#6e6e6e" transform="rotate(315 500.0 500.0)"/>
	<polyline points="500.0,155.0 549.0,155.0 500.0,211.0 451.0,155.0 Z" fill="#588ea5" transform="rotate(0 500.0 500.0)" shape-rendering="auto"/>
	<path d="M 500.0,85.0 C 503.36,98.44 549.28,151.07999999999998 529.12,186.92 C 522.4,198.12 516.8,210.44 500.0,225.0" fill="#ffe369" transform="rotate(0 500.0 500.0)" shape-rendering="auto"/>
	<path d="M 500.0,85.0 C 496.64,98.44 450.72,151.07999999999998 470.88,186.92 C 477.6,198.12 483.2,210.44 500.0,225.0 C 507.0,183.0 507.0,127.0 500.0,85.0" fill="#ffff83" transform="rotate(0 500.0 500.0)" shape-rendering="auto"/>
	<path d="M 500.0,226.0 C 483.2,210.44 477.6,198.12 469.88,186.92 C 476.88,172.92 523.12,172.92 530.12,186.92 C 522.4,198.12 516.8,210.44 500.0,226.0" fill="#588ea5" transform="rotate(0 500.0 500.0)" shape-rendering="auto"/>
	<polyline points="500.0,155.0 549.0,155.0 500.0,211.0 451.0,155.0 Z" fill="#588ea5" transform="rotate(45 500.0 500.0)" shape-rendering="auto"/>
	<path d="M 500.0,85.0 C 503.36,98.44 549.28,151.07999999999998 529.12,186.92 C 522.4,198.12 516.8,210.44 500.0,225.0" fill="#ffe369" transform="rotate(45 500.0 500.0)" shape-rendering="auto"/>
	<path d="M 500.0,85.0 C 496.64,98.44 450.72,151.07999999999998 470.88,186.92 C 477.6,198.12 483.2,210.44 500.0,225.0 C 507.0,183.0 507.0,127.0 500.0,85.0" fill="#ffff83" transform="rotate(45 500.0 500.0)" shape-rendering="auto"/>
	<path d="M 500.0,226.0 C 483.2,210.44 477.6,198.12 469.88,186.92 C 476.88,172.92 523.12,172.92 530.12,186.92 C 522.4,198.12 516.8,210.44 500.0,226.0" fill="#588ea5" transform="rotate(45 500.0 500.0)" shape-rendering="auto"/>
	<polyline points="500.0,155.0 549.0,155.0 500.0,211.0 451.0,155.0 Z" fill="#588ea5" transform="rotate(90 500.0 500.0)" shape-rendering="auto"/>
	<path d="M 500.0,85.0 C 503.36,98.44 549.28,151.07999999999998 529.12,186.92 C 522.4,198.12 516.8,210.44 500.0,225.0" fill="#ffe369" transform="rotate(90 500.0 500.0)" shape-rendering="auto"/>
	<path d="M 500.0,85.0 C 496.64,98.44 450.72,151.07999999999998 470.88,186.92 C 477.6,198.12 483.2,210.44 500.0,225.0 C 507.0,183.0 507.0,127.0 500.0,85.0" fill="#ffff83" transform="rotate(90 500.0 500.0)" shape-rendering="auto"/>
	<path d="M 500.0,226.0 C 483.2,210.44 477.6,198.12 469.88,186.92 C 476.88,172.92 523.12,172.92 530.12,186.92 C 522.4,198.12 516.8,210.44 500.0,226.0" fill="#588ea5" transform="rotate(90 500.0 500.0)" shape-rendering="auto"/>
	<polyline points="500.0,155.0 549.0,155.0 500.0,211.0 451.0,155.0 Z" fill="#588ea5" transform="rotate(135 500.0 500.0)" shape-rendering="auto"/>
	<path d="M 500.0,85.0 C 503.36,98.44 549.28,151.07999999999998 529.12,186.92 C 522.4,198.12 516.8,210.44 500.0,225.0" fill="#ffe369" transform="rotate(135 500.0 500.0)" shape-rendering="auto"/>
	<path d="M 500.0,85.0 C 496.64,98.44 450.72,151.07999999999998 470.88,186.92 C 477.6,198.12 483.2,210.44 500.0,225.0 C 507.0,183.0 507.0,127.0 500.0,85.0" fill="#ffff83" transform="rotate(135 500.0 500.0)" shape-rendering="auto"/>
	<path d="M 500.0,226.0 C 483.2,210.44 477.6,198.12 469.88,186.92 C 476.88,172.92 523.12,172.92 530.12,186.92 C 522.4,198.12 516.8,210.44 500.0,226.0" fill="#588ea5" transform="rotate(135 500.0 500.0)" shape-rendering="auto"/>
	<polyline points="500.0,155.0 549.0,155.0 500.0,211.0 451.0,155.0 Z" fill="#588ea5" transform="rotate(180 500.0 500.0) translate(1000.0, 0) scale(-1, 1)" shape-rendering="auto"/>
	<path d="M 500.0,85.0 C 503.36,98.44 549.28,151.07999999999998 529.12,186.92 C 522.4,198.12 516.8,210.44 500.0,225.0" fill="#ffe369" transform="rotate(180 500.0 500.0) translate(1000.0, 0) scale(-1, 1)" shape-rendering="auto"/>
	<path d="M 500.0,85.0 C 496.64,98.44 450.72,151.07999999999998 470.88,186.92 C 477.6,198.12 483.2,210.44 500.0,225.0 C 507.0,183.0 507.0,127.0 500.0,85.0" fill="#ffff83" transform="rotate(180 500.0 500.0) translate(1000.0, 0) scale(-1, 1)" shape-rendering="auto"/>
	<path d="M 500.0,226.0 C 483.2,210.44 477.6,198.12 469.88,186.92 C 476.88,172.92 523.12,172.92 530.12,186.92 C 522.4,198.12 516.8,210.44 500.0,226.0" fill="#588ea5" transform="rotate(180 500.0 500.0) translate(1000.0, 0) scale(-1, 1)" shape-rendering="auto"/>
	<polyline points="500.0,155.0 549.0,155.0 500.0,211.0 451.0,155.0 Z" fill="#588ea5" transform="rotate(225 500.0 500.0) translate(1000.0, 0) scale(-1, 1)" shape-rendering="auto"/>
	<path d="M 500.0,85.0 C 503.36,98.44 549.28,151.07999999999998 529.12,186.92 C 522.4,198.12 516.8,210.44 500.0,225.0" fill="#ffe369" transform="rotate(225 500.0 500.0) translate(1000.0, 0) scale(-1, 1)" shape-rendering="auto"/>
	<path d="M 500.0,85.0 C 496.64,98.44 450.72,151.07999999999998 470.88,186.92 C 477.6,198.12 483.2,210.44 500.0,225.0 C 507.0,183.0 507.0,127.0 500.0,85.0" fill="#ffff83" transform="rotate(225 500.0 500.0) translate(1000.0, 0) scale(-1, 1)" shape-rendering="auto"/>
	<path d="M 500.0,226.0 C 483.2,210.44 477.6,198.12 469.88,186.92 C 476.88,172.92 523.12,172.92 530.12,186.92 C 522.4,198.12 516.8,210.44 500.0,226.0" fill="#588ea5" transform="rotate(225 500.0 500.0) translate(1000.0, 0) scale(-1, 1)" shape-rendering="auto"/>
	<polyline points="500.0,155.0 549.0,155.0 500.0,211.0 451.0,155.0 Z" fill="#588ea5" transform="rotate(270 500.0 500.0) translate(1000.0, 0) scale(-1, 1)" shape-rendering="auto"/>
	<path d="M 500.0,85.0 C 503.36,98.44 549.28,151.07999999999998 529.12,186.92 C 522.4,198.12 516.8,210.44 500.0,225.0" fill="#ffe369" transform="rotate(270 500.0 500.0) translate(1000.0, 0) scale(-1, 1)" shape-rendering="auto"/>
	<path d="M 500.0,85.0 C 496.64,98.44 450.72,151.07999999999998 470.88,186.92 C 477.6,198.12 483.2,210.44 500.0,225.0 C 507.0,183.0 507.0,127.0 500.0,85.0" fill="#ffff83" transform="rotate(270 500.0 500.0) translate(1000.0, 0) scale(-1, 1)" shape-rendering="auto"/>
	<path d="M 500.0,226.0 C 483.2,210.44 477.6,198.12 469.88,186.92 C 476.88,172.92 523.12,172.92 530.12,186.92 C 522.4,198.12 516.8,210.44 500.0,226.0" fill="#588ea5" transform="rotate(270 500.0 500.0) translate(1000.0, 0) scale(-1, 1)" shape-rendering="auto"/>
	<polyline points="500.0,155.0 549.0,155.0 500.0,211.0 451.0,155.0 Z" fill="#588ea5" transform="rotate(315 500.0 500.0) translate(1000.0, 0) scale(-1, 1)" shape-rendering="auto"/>
	<path d="M 500.0,85.0 C 503.36,98.44 549.28,151.07999999999998 529.12,186.92 C 522.4,198.12 516.8,210.44 500.0,225.0" fill="#ffe369" transform="rotate(315 500.0 500.0) translate(1000.0, 0) scale(-1, 1)" shape-rendering="auto"/>
	<path d="M 500.0,85.0 C 496.64,98.44 450.72,151.07999999999998 470.88,186.92 C 477.6,198.12 483.2,210.44 500.0,225.0 C 507.0,183.0 507.0,127.0 500.0,85.0" fill="#ffff83" transform="rotate(315 500.0 500.0) translate(1000.0, 0) scale(-1, 1)" shape-rendering="auto"/>
	<path d="M 500.0,226.0 C 483.2,210.44 477.6,198.12 469.88,186.92 C 476.88,172.92 523.12,172.92 530.12,186.92 C 522.4,198.12 516.8,210.44 500.0,226.0" fill="#588ea5" transform="rotate(315 500.0 500.0) translate(1000.0, 0) scale(-1, 1)" shape-rendering="auto"/>
</svg>
